<?xml version="1.0" encoding="UTF-8"?>
<svg id="Layer_2" data-name="Layer 2" xmlns="http://www.w3.org/2000/svg" viewBox="0 0 1000 1000">
  <defs>
    <style>
      .cls-1, .cls-2 {
        opacity: .5;
      }

      .cls-3, .cls-4, .cls-2 {
        fill: #ccd2d6;
        stroke-width: 0px;
      }

      .cls-4, .cls-5 {
        opacity: .75;
      }

      .cls-6 {
        opacity: .25;
      }
    </style>
  </defs>
  <g>
    <g>
      <g>
        <path class="cls-4" d="m498.21,868.39H96.84v-48.1h388.51v35.24c0,7.1,5.76,12.86,12.86,12.86Z"/>
        <path class="cls-3" d="m498.21,871.39H93.84v-54.1h394.51v38.24c0,5.44,4.42,9.86,9.86,9.86v6Zm-398.37-6h385.95c-2.16-2.71-3.45-6.14-3.45-9.86v-32.24H99.84v42.1Z"/>
        <path class="cls-4" d="m230.13,349.76v30.9h-68.14v-30.9c0-9.13,7.41-16.54,16.54-16.54h35.08c9.13,0,16.53,7.41,16.53,16.54Z"/>
        <rect class="cls-4" x="161.99" y="516.3" width="68.14" height="58.79"/>
        <rect class="cls-4" x="161.98" y="710.73" width="68.14" height="109.57"/>
        <path class="cls-4" d="m564.51,349.76v30.9h-68.14v-30.9c0-9.13,7.41-16.54,16.54-16.54h35.08c9.13,0,16.53,7.41,16.53,16.54Z"/>
        <rect class="cls-4" x="496.36" y="516.3" width="68.14" height="58.79"/>
        <path class="cls-4" d="m561.41,710.73l-30.97,88.85h-32.23c-.63,0-1.24.04-1.85.14v-88.99h65.04Z"/>
        <path class="cls-3" d="m233.13,383.67h-74.14v-33.9c0-10.77,8.76-19.54,19.54-19.54h35.08c10.77,0,19.53,8.76,19.53,19.54v33.9Zm-68.14-6h62.14v-27.9c0-7.46-6.07-13.54-13.53-13.54h-35.08c-7.46,0-13.54,6.07-13.54,13.54v27.9Z"/>
        <path class="cls-3" d="m233.13,578.09h-74.14v-64.79h74.14v64.79Zm-68.14-6h62.14v-52.79h-62.14v52.79Z"/>
        <path class="cls-3" d="m233.13,823.29h-74.14v-115.57h74.14v115.57Zm-68.14-6h62.14v-103.57h-62.14v103.57Z"/>
        <path class="cls-3" d="m567.51,383.67h-74.14v-33.9c0-10.77,8.76-19.54,19.54-19.54h35.08c10.77,0,19.52,8.76,19.52,19.54v33.9Zm-68.14-6h62.14v-27.9c0-7.46-6.07-13.54-13.52-13.54h-35.08c-7.46,0-13.54,6.07-13.54,13.54v27.9Z"/>
        <path class="cls-3" d="m567.5,578.09h-74.14v-64.79h74.14v64.79Zm-68.14-6h62.14v-52.79h-62.14v52.79Z"/>
        <path class="cls-3" d="m493.36,803.24v-95.51h72.27l-33.06,94.85h-34.36c-.49,0-.94.03-1.37.1l-3.48.56Zm6-6.66h28.94l28.88-82.85h-57.82v82.85Z"/>
      </g>
      <g>
        <g class="cls-1">
          <polygon class="cls-3" points="260.06 380.67 124.43 516.3 190.76 516.3 326.39 380.67 260.06 380.67"/>
          <path class="cls-3" d="m110.41,380.67c-7.5,0-13.57,6.28-13.57,14.03v89.99l104.02-104.02h-90.45Z"/>
          <path class="cls-3" d="m627.24,390.06l-126.25,126.24h113.44c7.48,0,13.57-6.28,13.57-14.03v-107.58c0-1.62-.26-3.18-.76-4.63Z"/>
          <polygon class="cls-3" points="577.44 380.66 441.8 516.3 375.48 516.3 511.11 380.66 577.44 380.66"/>
          <polygon class="cls-3" points="451.91 380.66 316.27 516.3 249.95 516.3 385.58 380.66 451.91 380.66"/>
        </g>
        <g>
          <path class="cls-3" d="m192,519.3h-74.81l141.63-141.63h74.81l-141.63,141.63Zm-60.32-6h57.84l129.63-129.63h-57.84l-129.63,129.63Z"/>
          <path class="cls-3" d="m93.84,491.93v-97.24c0-9.39,7.43-17.03,16.57-17.03h97.69l-114.26,114.26Zm16.57-108.26c-5.83,0-10.57,4.95-10.57,11.03v82.75l93.78-93.78h-83.21Z"/>
          <path class="cls-3" d="m614.44,519.3h-120.68l134.77-134.76,1.56,4.55c.61,1.78.92,3.67.92,5.6v107.58c0,9.39-7.43,17.03-16.57,17.03Zm-106.2-6h106.2c5.83,0,10.57-4.95,10.57-11.03v-105.73l-116.76,116.75Z"/>
          <path class="cls-3" d="m443.04,519.3h-74.8l141.62-141.64h74.81l-141.64,141.64Zm-60.32-6h57.83l129.64-129.64h-57.84l-129.63,129.64Z"/>
          <path class="cls-3" d="m317.51,519.3h-74.8l141.62-141.64h74.81l-141.64,141.64Zm-60.32-6h57.83l129.64-129.64h-57.84l-129.63,129.64Z"/>
        </g>
        <g class="cls-5">
          <path class="cls-3" d="m97.15,505.18c1.3,6.35,6.74,11.11,13.26,11.11h.46c-6.75,0-12.38-4.77-13.72-11.11Z"/>
          <path class="cls-3" d="m96.85,502.99c0,.16.03.3.05.45-.03-.39-.06-.78-.06-1.17,0,.25,0,.48.01.72Z"/>
          <path class="cls-3" d="m97,504.4c.03.19.07.37.11.55-.06-.33-.11-.66-.15-.99.02.14.02.3.04.44Z"/>
          <path class="cls-3" d="m96.95,503.97c-.02-.17-.04-.35-.05-.52.01.17.03.35.05.52Z"/>
          <path class="cls-3" d="m97.15,505.18c-.02-.08-.03-.15-.04-.23.01.08.03.15.04.23Z"/>
          <path class="cls-3" d="m200.86,380.67l-104.02,104.02v17.59c0,.4.03.79.06,1.17.02.18.03.35.05.52.04.33.09.67.15.99.01.08.03.15.04.23,1.34,6.35,6.97,11.11,13.72,11.11h13.57l135.63-135.63h-59.21Z"/>
          <polygon class="cls-3" points="385.58 380.66 249.95 516.3 190.76 516.3 326.38 380.66 385.58 380.66"/>
          <polygon class="cls-3" points="511.11 380.66 375.48 516.3 316.27 516.3 451.91 380.66 511.11 380.66"/>
          <path class="cls-3" d="m627.25,390.06l-126.25,126.24h-59.19l135.64-135.64h37c1.35,0,2.67.21,3.92.59,4.15,1.3,7.47,4.59,8.9,8.8Z"/>
        </g>
        <g>
          <path class="cls-3" d="m110.86,519.3h-.46c-7.78,0-14.6-5.68-16.2-13.51l5.87-1.22c1.07,5.06,5.61,8.73,10.78,8.73v6Z"/>
          <path class="cls-3" d="m93.91,503.7c-.03-.24-.04-.39-.05-.55h0c-.02-.29-.02-.58-.02-.88h6c0,.31.02.62.05.93l-5.98.5Z"/>
          <path class="cls-3" d="m94.16,505.53s0,0,0-.01l-.03-.14c-.04-.18-.07-.35-.1-.53v-.02c-.02-.13-.04-.27-.05-.4h0s0-.06-.01-.09l5.96-.71c.03.26.07.52.12.78h0s-5.89,1.15-5.89,1.15Z"/>
          <path class="cls-3" d="m93.97,504.33s0-.05,0-.08c-.02-.18-.04-.37-.06-.56l5.98-.52c.01.12.02.25.04.37,0,.02,0,.04,0,.06l-5.96.73Z"/>
          <polygon class="cls-3" points="94.21 505.79 94.15 505.5 100.05 504.41 100.09 504.59 94.21 505.79"/>
          <path class="cls-3" d="m125.68,519.3h-14.81c-8,0-15-5.67-16.65-13.49l-.06-.3c-.07-.37-.13-.78-.18-1.18-.02-.2-.04-.4-.06-.61-.04-.49-.07-.96-.07-1.44v-18.83l105.78-105.78h67.69l-141.63,141.63Zm-25.84-33.37v16.34c0,.31.02.62.05.93.01.12.02.27.04.41.03.27.07.53.12.78l.04.21c1.06,5.03,5.6,8.71,10.78,8.71h12.33l129.63-129.63h-50.72l-102.26,102.26Z"/>
          <path class="cls-3" d="m249.95,519.3h-66.44l141.63-141.64h67.68l-141.62,141.64h-1.24Zm-51.95-6h50.71l129.63-129.64h-50.71l-129.63,129.64Z"/>
          <path class="cls-3" d="m375.48,519.3h-66.46l141.64-141.64h67.69l-141.62,141.64h-1.24Zm-51.97-6h50.73l129.63-129.64h-50.72l-129.64,129.64Z"/>
          <path class="cls-3" d="m502.24,519.3h-67.68l141.64-141.64h38.24c1.63,0,3.25.25,4.81.73,5.06,1.58,9.11,5.58,10.85,10.7l.6,1.77-128.45,128.44Zm-53.19-6h50.71l123.94-123.93c-1.33-2.5-3.57-4.41-6.24-5.25-.98-.3-2-.46-3.02-.46h-35.75l-129.64,129.64Z"/>
        </g>
      </g>
      <g>
        <g class="cls-1">
          <path class="cls-3" d="m110.41,575.09c-7.5,0-13.57,6.28-13.57,14.03v89.99l104.02-104.02h-90.45Z"/>
          <polygon class="cls-3" points="326.38 575.09 190.76 710.72 124.43 710.72 260.07 575.09 326.38 575.09"/>
          <path class="cls-3" d="m97,698.83c.03.19.07.37.11.55-.06-.33-.11-.66-.15-.99.02.14.02.3.04.44Z"/>
          <path class="cls-3" d="m96.85,697.42c0,.16.03.3.05.45-.03-.39-.06-.78-.06-1.17,0,.25,0,.48.01.72Z"/>
          <path class="cls-3" d="m97.15,699.61c1.3,6.35,6.74,11.11,13.26,11.11h.46c-6.75,0-12.38-4.77-13.72-11.11Z"/>
          <polygon class="cls-3" points="511.11 575.09 375.48 710.72 441.8 710.72 577.43 575.09 511.11 575.09"/>
          <polygon class="cls-3" points="593.72 618.01 572.92 677.69 561.41 710.73 501 710.73 593.72 618.01"/>
          <polygon class="cls-3" points="451.91 575.09 316.27 710.72 249.95 710.72 385.58 575.09 451.91 575.09"/>
          <path class="cls-3" d="m96.95,698.39c-.02-.17-.04-.35-.05-.52.01.17.03.35.05.52Z"/>
          <path class="cls-3" d="m97.15,699.61c-.02-.08-.03-.15-.04-.23.01.08.03.15.04.23Z"/>
        </g>
        <g>
          <path class="cls-3" d="m93.84,686.35v-97.24c0-9.39,7.43-17.03,16.57-17.03h97.69l-114.26,114.26Zm16.57-108.26c-5.83,0-10.57,4.95-10.57,11.03v82.75l93.78-93.78h-83.21Z"/>
          <path class="cls-3" d="m192,713.72h-74.81l141.64-141.62h74.8l-141.63,141.62Zm-60.33-6h57.84l129.63-129.62h-57.83l-129.64,129.62Z"/>
          <path class="cls-3" d="m94.16,699.96s0-.01,0-.02l-.03-.14c-.04-.17-.07-.35-.1-.53v-.02c-.02-.13-.04-.27-.05-.41h0s0-.06-.01-.09l5.96-.71c.03.26.07.52.12.78h0s-5.89,1.15-5.89,1.15Z"/>
          <path class="cls-3" d="m93.91,698.13c-.03-.24-.04-.39-.05-.55h0c-.02-.29-.02-.58-.02-.88h6c0,.31.02.62.05.93l-5.98.51Z"/>
          <path class="cls-3" d="m110.86,713.72h-.46c-7.78,0-14.6-5.68-16.2-13.51l5.87-1.22c1.07,5.06,5.61,8.73,10.78,8.73v6Z"/>
          <path class="cls-3" d="m443.05,713.72h-74.81l141.63-141.63h74.81l-141.63,141.63Zm-60.32-6h57.84l129.63-129.63h-57.84l-129.63,129.63Z"/>
          <path class="cls-3" d="m563.54,713.73h-69.78l107.12-107.1-37.33,107.1Zm-55.3-6h51.03l27.3-78.33-78.34,78.33Z"/>
          <path class="cls-3" d="m317.51,713.72h-74.8l141.63-141.62h74.81l-141.64,141.62Zm-60.32-6h57.83l129.64-129.62h-57.84l-129.63,129.62Z"/>
          <path class="cls-3" d="m93.97,698.75s0-.05,0-.08c-.02-.18-.04-.37-.06-.56l5.98-.52c.01.12.02.25.04.37,0,.02,0,.04,0,.06l-5.96.73Z"/>
          <polygon class="cls-3" points="94.21 700.22 94.16 699.97 100.05 698.83 100.09 699.02 94.21 700.22"/>
        </g>
        <g class="cls-5">
          <path class="cls-3" d="m260.07,575.09l-135.64,135.63h-13.57c-6.74,0-12.37-4.76-13.71-11.11-.02-.08-.03-.15-.04-.23-.06-.32-.12-.66-.15-.99-.02-.17-.04-.35-.05-.52-.03-.39-.06-.78-.06-1.18v-17.59l104.02-104.02h59.21Z"/>
          <polygon class="cls-3" points="385.58 575.09 249.95 710.72 190.76 710.72 326.38 575.09 385.58 575.09"/>
          <polygon class="cls-3" points="511.11 575.09 375.48 710.72 316.27 710.72 451.91 575.09 511.11 575.09"/>
          <polygon class="cls-3" points="608.68 575.1 605.41 584.49 593.72 618.01 501 710.73 441.8 710.73 577.43 575.1 608.68 575.1"/>
        </g>
        <g>
          <path class="cls-3" d="m125.67,713.72h-14.81c-7.97,0-14.96-5.64-16.63-13.42-.03-.13-.06-.26-.08-.4-.08-.4-.14-.8-.18-1.21-.02-.16-.05-.39-.06-.62-.04-.41-.07-.88-.07-1.36v-18.83l105.77-105.77h67.7l-141.64,141.62Zm-25.6-14.79v.06c1.08,5.06,5.61,8.73,10.79,8.73h12.33l129.64-129.62h-50.73l-102.26,102.26v16.34c0,.31.03.62.05.92.01.18.03.29.04.4.03.31.07.55.12.77l.02.14Z"/>
          <path class="cls-3" d="m251.19,713.72h-67.68l141.63-141.62h67.68l-141.63,141.62Zm-53.19-6h50.71l129.63-129.62h-50.71l-129.63,129.62Z"/>
          <path class="cls-3" d="m376.73,713.72h-67.7l141.64-141.62h67.69l-141.62,141.62Zm-53.21-6h50.73l129.63-129.62h-50.72l-129.64,129.62Z"/>
          <path class="cls-3" d="m502.24,713.73h-67.68l141.63-141.63h36.71l-16.57,47.55-94.09,94.08Zm-53.19-6h50.71l91.36-91.35,13.34-38.28h-25.78l-129.63,129.63Z"/>
        </g>
      </g>
      <path class="cls-3" d="m476.46,855.55H104.01c-1.66,0-3-1.34-3-3s1.34-3,3-3h372.45c1.66,0,3,1.34,3,3s-1.34,3-3,3Z"/>
    </g>
    <g>
      <g class="cls-5">
        <path class="cls-3" d="m778.53,453.18h-127.35l13.83-39.66c3.38-9.67,12.51-16.16,22.75-16.16h54.18c10.25,0,19.38,6.49,22.75,16.16l13.83,39.66Z"/>
        <polygon class="cls-3" points="824.3 584.49 605.41 584.49 631.4 509.96 798.31 509.96 824.3 584.49"/>
        <polygon class="cls-3" points="899.27 799.58 530.44 799.58 572.92 677.69 856.78 677.69 899.27 799.58"/>
      </g>
      <g>
        <path class="cls-3" d="m782.75,456.18h-135.8l15.22-43.65c3.79-10.87,14.08-18.17,25.59-18.17h54.18c11.51,0,21.79,7.3,25.59,18.17l15.22,43.65Zm-127.35-6h118.9l-12.44-35.67c-2.95-8.46-10.96-14.15-19.92-14.15h-54.18c-8.96,0-16.97,5.69-19.92,14.15l-12.44,35.67Z"/>
        <path class="cls-3" d="m828.52,587.49h-227.33l28.08-80.53h171.18l28.08,80.53Zm-218.88-6h210.44l-23.89-68.53h-162.65l-23.89,68.53Z"/>
        <path class="cls-3" d="m903.49,802.58h-377.27l44.58-127.89h288.12l44.58,127.89Zm-368.83-6h360.38l-40.39-115.89h-279.6l-40.39,115.89Z"/>
      </g>
      <rect class="cls-4" x="485.35" y="799.58" width="459.01" height="68.81" rx="12.86" ry="12.86"/>
      <path class="cls-3" d="m931.49,871.39h-433.28c-8.75,0-15.86-7.12-15.86-15.86v-43.09c0-8.75,7.12-15.86,15.86-15.86h433.28c8.75,0,15.86,7.12,15.86,15.86v43.09c0,8.75-7.12,15.86-15.86,15.86Zm-433.28-68.81c-5.44,0-9.86,4.42-9.86,9.86v43.09c0,5.44,4.42,9.86,9.86,9.86h433.28c5.44,0,9.86-4.42,9.86-9.86v-43.09c0-5.44-4.42-9.86-9.86-9.86h-433.28Z"/>
      <g class="cls-1">
        <polygon class="cls-3" points="798.31 509.96 631.4 509.96 651.18 453.18 778.53 453.18 798.31 509.96"/>
        <polygon class="cls-3" points="856.78 677.69 572.92 677.69 605.41 584.49 824.3 584.49 856.78 677.69"/>
      </g>
      <g>
        <path class="cls-3" d="m802.53,512.96h-175.36l21.87-62.79h131.61l21.87,62.79Zm-166.92-6h158.47l-17.69-50.79h-123.08l-17.69,50.79Z"/>
        <path class="cls-3" d="m861.01,680.69h-292.31l34.58-99.2h223.15l34.58,99.2Zm-283.86-6h275.42l-30.4-87.2h-214.62l-30.4,87.2Z"/>
      </g>
    </g>
    <g>
      <path class="cls-2" d="m490.58,247.7l-27.57-7.65c.61-9.71-.48-19.58-3.39-29.21l24.96-13.55c1.31-.71,1.5-2.51.32-3.43-2.39-1.89-6.1-5.6-10.1-12.61-4-7.01-5.3-12.05-5.68-15.02-.18-1.46-1.85-2.25-3.16-1.54l-24.86,13.5c-6.85-7.55-14.9-13.72-23.71-18.38l7.77-26.63c.41-1.41-.77-2.8-2.26-2.65-3.06.32-8.38.24-16.29-1.96-7.92-2.19-12.48-4.86-14.91-6.71-1.19-.9-2.95-.32-3.36,1.11l-7.75,26.54c-10.04-.59-20.26.49-30.2,3.38l-13.75-24.08c-.74-1.29-2.58-1.47-3.53-.32-1.94,2.33-5.75,5.95-12.93,9.85-7.19,3.9-12.36,5.16-15.41,5.54-1.5.18-2.31,1.8-1.57,3.09l13.75,24.08c-7.75,6.72-14.08,14.62-18.84,23.26l-27.24-7.56c-1.46-.4-2.89.74-2.73,2.2.33,2.98.26,8.17-1.99,15.88-2.26,7.72-4.99,12.17-6.88,14.54-.92,1.16-.33,2.87,1.12,3.27l27.31,7.58c-.57,9.76.58,19.67,3.55,29.33l-24.86,13.5c-1.31.71-1.5,2.51-.32,3.43,2.39,1.89,6.1,5.61,10.1,12.61,4,7.01,5.3,12.05,5.68,15.02.19,1.47,1.85,2.25,3.16,1.54l24.96-13.55c6.87,7.48,14.91,13.58,23.69,18.19l-7.85,26.88c-.41,1.41.77,2.8,2.26,2.65,3.06-.32,8.37-.25,16.28,1.95,7.93,2.2,12.48,4.86,14.91,6.71,1.19.91,2.95.32,3.37-1.1l7.86-26.94c9.93.55,20.02-.55,29.85-3.39l13.99,24.49c.74,1.29,2.58,1.46,3.53.32,1.93-2.34,5.75-5.95,12.93-9.85,7.19-3.9,12.35-5.17,15.41-5.54,1.49-.19,2.31-1.8,1.57-3.09l-13.99-24.49c7.66-6.65,13.93-14.43,18.68-22.95l27.63,7.67c1.45.4,2.89-.74,2.73-2.21-.33-2.98-.25-8.16,2-15.87,2.26-7.72,4.99-12.17,6.88-14.54.92-1.16.33-2.87-1.12-3.27Zm-79.59-31.82c10.92,19.12,3.88,43.26-15.74,53.91-19.61,10.65-44.36,3.77-55.29-15.35-10.92-19.11-3.88-43.24,15.73-53.89,19.61-10.65,44.37-3.78,55.29,15.33Z"/>
      <path class="cls-3" d="m360.55,351.9c-1.11,0-2.2-.36-3.11-1.04-2.22-1.69-6.44-4.13-13.9-6.2-7.45-2.07-12.36-2.15-15.17-1.86-1.72.17-3.38-.51-4.48-1.82-1.08-1.3-1.45-3.04-.98-4.66l7.17-24.56c-7.7-4.3-14.65-9.65-20.73-15.93l-22.93,12.45c-1.51.82-3.32.84-4.85.06-1.49-.76-2.51-2.21-2.72-3.85-.35-2.72-1.56-7.35-5.31-13.91-3.75-6.56-7.16-10.01-9.35-11.74-1.33-1.04-2.05-2.68-1.91-4.37.14-1.71,1.14-3.23,2.66-4.06l22.74-12.34c-2.32-8.35-3.35-16.94-3.09-25.59l-25.01-6.94c-1.67-.46-2.98-1.71-3.51-3.35-.52-1.61-.21-3.36.85-4.68,1.72-2.16,4.22-6.25,6.35-13.51,2.11-7.21,2.19-11.98,1.89-14.71-.18-1.66.48-3.29,1.76-4.38,1.31-1.12,3.09-1.5,4.76-1.04l24.99,6.93c4.44-7.57,9.97-14.4,16.48-20.36l-12.55-21.97c-.85-1.48-.89-3.28-.13-4.8.77-1.53,2.25-2.56,3.95-2.76,2.8-.35,7.57-1.53,14.33-5.2,6.74-3.66,10.28-6.98,12.06-9.13,1.05-1.28,2.69-1.97,4.38-1.83,1.7.14,3.22,1.11,4.06,2.58l12.6,22.05c8.65-2.27,17.55-3.27,26.54-2.97l7.09-24.28c.47-1.61,1.71-2.9,3.33-3.43,1.61-.53,3.38-.25,4.73.77,2.24,1.7,6.46,4.15,13.9,6.21,7.47,2.07,12.38,2.16,15.18,1.87,1.71-.18,3.38.5,4.48,1.82,1.08,1.3,1.45,3.04.98,4.66l-7.1,24.31c7.71,4.35,14.68,9.76,20.76,16.11l22.82-12.39c1.51-.82,3.33-.84,4.86-.05,1.49.77,2.51,2.21,2.72,3.86.35,2.71,1.56,7.34,5.31,13.91,3.75,6.56,7.16,10.01,9.36,11.74,1.34,1.05,2.05,2.69,1.91,4.38-.14,1.71-1.14,3.22-2.66,4.05l-22.84,12.4c2.26,8.32,3.25,16.86,2.95,25.48l25.26,7.01c1.67.46,2.98,1.71,3.51,3.35.52,1.61.21,3.36-.84,4.68-1.72,2.16-4.22,6.25-6.35,13.51-2.11,7.23-2.2,11.98-1.9,14.7.18,1.65-.47,3.28-1.74,4.37-1.31,1.12-3.09,1.52-4.76,1.07l-25.41-7.05c-4.42,7.44-9.89,14.17-16.31,20.06l12.78,22.38c.84,1.47.89,3.26.13,4.78-.76,1.53-2.24,2.57-3.94,2.78-2.8.34-7.55,1.51-14.35,5.2-6.78,3.68-10.3,6.99-12.05,9.12-1.08,1.3-2.73,1.98-4.41,1.83-1.69-.15-3.2-1.11-4.04-2.57l-12.83-22.46c-8.55,2.24-17.33,3.24-26.18,2.98l-7.21,24.68c-.48,1.63-1.73,2.91-3.35,3.43-.53.17-1.07.26-1.61.26Zm-29.67-15.23c3.39,0,8.11.49,14.27,2.2,7.42,2.06,12.12,4.56,14.94,6.49l8.19-28.06,2.38.13c9.77.54,19.48-.56,28.85-3.28l2.27-.66,14.57,25.51c2.27-2.5,6.26-5.98,13.01-9.65,6.68-3.62,11.76-5.11,15.14-5.68l-14.54-25.45,1.86-1.61c7.29-6.33,13.36-13.78,18.02-22.15l1.15-2.06,28.74,7.97c-.19-3.37.12-8.56,2.21-15.71,2.09-7.12,4.59-11.67,6.56-14.43l-28.64-7.95.15-2.43c.6-9.54-.5-19.01-3.26-28.16l-.71-2.34,25.91-14.07c-2.58-2.26-6.08-6.13-9.76-12.57-3.72-6.52-5.25-11.52-5.85-14.85l-25.89,14.06-1.58-1.74c-6.53-7.19-14.23-13.16-22.89-17.75l-2.16-1.14,8.08-27.7c-3.43.19-8.73-.11-16.1-2.15-7.4-2.05-12.11-4.55-14.93-6.49l-8.08,27.67-2.39-.14c-9.91-.58-19.73.52-29.19,3.27l-2.27.66-14.34-25.1c-2.3,2.53-6.3,6-13.01,9.65-6.65,3.61-11.74,5.09-15.14,5.68l14.31,25.04-1.86,1.61c-7.38,6.4-13.49,13.95-18.18,22.44l-1.15,2.08-28.36-7.87c.19,3.37-.12,8.57-2.21,15.71-2.09,7.12-4.59,11.67-6.56,14.43l28.37,7.87-.14,2.42c-.56,9.58.59,19.09,3.42,28.27l.72,2.35-25.83,14.02c2.58,2.27,6.09,6.14,9.76,12.57,3.72,6.52,5.25,11.52,5.85,14.85l25.97-14.1,1.58,1.73c6.53,7.12,14.23,13.03,22.88,17.56l2.17,1.14-8.16,27.96c.56-.03,1.17-.05,1.83-.05Zm-46.08-32.96s0,0,0,0c0,0,0,0,0,0Zm-16.91-29.61s0,0,0,0c0,0,0,0,0,0Zm221.88-23.52s0,0,0,0h0Zm-23.63-83.98s0,0,0,0c0,0,0,0,0,0Zm-161.01-19.76s0,0,0,0c0,0,0,0,0,0Zm30.29-16.46s0,0,0,0c0,0,0,0,0,0Zm40.15,147.39c-15.33,0-30.23-7.89-38.2-21.85-5.64-9.86-7.03-21.29-3.94-32.17,3.15-11.08,10.55-20.25,20.84-25.84,21.01-11.4,47.62-4.01,59.33,16.48h0c5.64,9.87,7.04,21.3,3.94,32.18-3.15,11.08-10.56,20.26-20.85,25.85-6.69,3.63-13.95,5.36-21.12,5.36Zm-.14-79.24c-6.21,0-12.5,1.49-18.3,4.64-8.86,4.81-15.23,12.7-17.94,22.21-2.65,9.32-1.45,19.1,3.38,27.56,10.1,17.69,33.09,24.06,51.25,14.2,8.86-4.81,15.23-12.7,17.94-22.22,2.65-9.32,1.45-19.11-3.38-27.56-6.87-12.03-19.72-18.83-32.96-18.83Z"/>
      <path class="cls-4" d="m647.71,208.27l-16.25-4.51c.36-5.72-.28-11.54-2-17.22l14.71-7.99c.77-.42.89-1.48.19-2.02-1.41-1.11-3.59-3.3-5.95-7.43-2.36-4.13-3.12-7.1-3.35-8.85-.11-.86-1.09-1.33-1.86-.91l-14.66,7.96c-4.04-4.45-8.78-8.08-13.97-10.84l4.58-15.69c.24-.83-.45-1.65-1.33-1.56-1.8.19-4.94.14-9.6-1.15-4.67-1.29-7.36-2.87-8.79-3.95-.7-.53-1.74-.19-1.98.65l-4.57,15.64c-5.92-.35-11.94.29-17.8,1.99l-8.11-14.19c-.43-.76-1.52-.87-2.08-.19-1.14,1.37-3.39,3.51-7.62,5.8-4.24,2.3-7.28,3.04-9.08,3.26-.88.1-1.36,1.06-.93,1.82l8.11,14.19c-4.57,3.96-8.3,8.62-11.1,13.71l-16.05-4.45c-.86-.24-1.7.44-1.61,1.3.19,1.76.15,4.82-1.18,9.36-1.33,4.55-2.94,7.17-4.05,8.57-.54.68-.19,1.69.66,1.93l16.1,4.47c-.33,5.75.34,11.6,2.09,17.29l-14.66,7.96c-.77.42-.88,1.48-.19,2.02,1.41,1.11,3.6,3.31,5.95,7.43,2.36,4.13,3.12,7.1,3.35,8.85.11.86,1.09,1.33,1.86.91l14.71-7.99c4.05,4.41,8.79,8,13.96,10.72l-4.63,15.84c-.24.83.45,1.65,1.33,1.56,1.8-.19,4.93-.15,9.6,1.15,4.67,1.3,7.36,2.87,8.79,3.95.7.54,1.74.19,1.98-.65l4.64-15.88c5.85.32,11.8-.32,17.59-2l8.24,14.43c.43.76,1.52.86,2.08.19,1.14-1.38,3.39-3.51,7.62-5.8,4.24-2.3,7.28-3.05,9.08-3.26.88-.11,1.36-1.06.93-1.82l-8.24-14.43c4.52-3.92,8.21-8.51,11.01-13.53l16.29,4.52c.86.23,1.7-.44,1.61-1.3-.19-1.76-.15-4.81,1.18-9.36,1.33-4.55,2.94-7.17,4.05-8.57.54-.68.19-1.69-.66-1.93Zm-46.91-18.75c6.44,11.27,2.29,25.49-9.28,31.77-11.56,6.28-26.15,2.22-32.58-9.05-6.43-11.26-2.29-25.49,9.27-31.76,11.56-6.28,26.15-2.23,32.59,9.04Z"/>
      <path class="cls-3" d="m571.07,270.92c-.92,0-1.83-.3-2.58-.87-1.22-.93-3.57-2.28-7.78-3.45-4.2-1.17-6.93-1.22-8.48-1.06-1.42.15-2.81-.42-3.71-1.51-.9-1.08-1.2-2.53-.81-3.88l3.95-13.54c-4.03-2.35-7.71-5.18-10.99-8.45l-12.7,6.89c-1.25.68-2.75.69-4.01.05-1.24-.64-2.09-1.84-2.26-3.21-.19-1.49-.87-4.05-2.98-7.75-2.11-3.7-4-5.61-5.21-6.56-1.11-.87-1.7-2.23-1.59-3.64.12-1.43.94-2.69,2.21-3.37l12.55-6.81c-1.14-4.43-1.69-8.97-1.63-13.53l-13.82-3.83c-1.38-.38-2.47-1.42-2.91-2.78-.44-1.34-.17-2.8.7-3.91.78-.97,2.26-3.24,3.52-7.54,1.18-4.06,1.24-6.69,1.07-8.19-.15-1.39.4-2.75,1.46-3.66,1.09-.92,2.56-1.24,3.93-.86l13.82,3.83c2.42-3.96,5.35-7.58,8.73-10.8l-6.91-12.1c-.71-1.23-.74-2.73-.1-4,.64-1.27,1.87-2.13,3.28-2.3,1.54-.19,4.19-.85,8-2.92,4-2.17,5.94-4.12,6.75-5.08.88-1.06,2.24-1.63,3.63-1.52,1.41.12,2.66.92,3.36,2.13l6.96,12.19c4.62-1.13,9.34-1.65,14.12-1.58l3.91-13.4c.39-1.34,1.42-2.41,2.76-2.85,1.33-.44,2.8-.2,3.91.64,1.23.94,3.58,2.29,7.78,3.45,4.44,1.23,7.22,1.19,8.49,1.06,1.4-.15,2.8.42,3.71,1.51.9,1.08,1.21,2.53.81,3.88l-3.91,13.4c4.04,2.38,7.73,5.24,11.01,8.55l12.63-6.86c1.25-.68,2.75-.69,4.01-.04,1.24.64,2.09,1.84,2.26,3.22.16,1.21.76,3.85,2.98,7.74,2.11,3.7,4,5.61,5.21,6.56,1.11.88,1.71,2.24,1.59,3.65-.12,1.42-.95,2.68-2.21,3.36l-12.61,6.85c1.11,4.41,1.63,8.92,1.56,13.46l13.96,3.87c1.38.38,2.47,1.42,2.91,2.78.44,1.34.17,2.8-.71,3.91-.78.97-2.26,3.24-3.52,7.54-1.25,4.27-1.21,6.96-1.07,8.18.15,1.38-.39,2.74-1.45,3.65-1.08.93-2.55,1.25-3.93.88l-14.08-3.91c-2.4,3.89-5.29,7.45-8.63,10.62l7.05,12.34c.7,1.23.74,2.72.11,3.98-.64,1.27-1.86,2.13-3.27,2.31-1.27.15-3.99.73-8.02,2.92-4.03,2.19-5.95,4.12-6.74,5.08-.9,1.08-2.26,1.64-3.66,1.52-1.4-.12-2.65-.92-3.34-2.13l-7.1-12.43c-4.55,1.11-9.21,1.64-13.91,1.58l-3.98,13.64c-.4,1.35-1.44,2.41-2.77,2.85-.44.14-.88.21-1.33.21Zm-16.91-11.43c2.04.05,4.75.38,8.17,1.33,3.47.96,5.98,2.09,7.75,3.11l4.64-15.91,2.38.13c5.62.31,11.2-.32,16.6-1.89l2.27-.66,8.27,14.47c1.48-1.38,3.66-3.04,6.81-4.75,3.09-1.68,5.64-2.61,7.61-3.12l-8.24-14.42,1.86-1.61c4.19-3.64,7.68-7.92,10.35-12.72l1.15-2.06,16.29,4.52c.06-2,.4-4.65,1.37-7.98.96-3.29,2.08-5.7,3.1-7.42l-16.23-4.5.15-2.43c.34-5.48-.29-10.92-1.87-16.16l-.71-2.34,14.67-7.97c-1.4-1.45-3.05-3.54-4.75-6.52-1.74-3.04-2.7-5.56-3.22-7.5l-14.68,7.97-1.58-1.74c-3.75-4.13-8.18-7.56-13.16-10.2l-2.16-1.14,4.58-15.69c-2.04-.05-4.75-.39-8.17-1.34-3.46-.96-5.97-2.09-7.74-3.1l-4.58,15.69-2.38-.14c-5.7-.33-11.35.3-16.79,1.88l-2.27.66-8.13-14.23c-1.49,1.39-3.67,3.05-6.81,4.75-3.08,1.67-5.64,2.6-7.61,3.11l8.1,14.18-1.86,1.61c-4.24,3.68-7.75,8.01-10.44,12.89l-1.14,2.08-16.07-4.46c-.06,2-.4,4.66-1.37,7.98-.96,3.29-2.08,5.7-3.1,7.42l16.06,4.46-.14,2.42c-.32,5.5.34,10.96,1.96,16.23l.72,2.35-14.63,7.94c1.4,1.45,3.05,3.54,4.75,6.52,1.74,3.04,2.7,5.56,3.22,7.5l14.73-7.99,1.58,1.73c3.75,4.09,8.18,7.49,13.15,10.09l2.18,1.14-4.63,15.85Zm-26.51-18.37s0,0,0,0c0,0,0,0,0,0Zm-10.43-18.26s0,0,.01.01c0,0,0,0-.01-.01Zm125.29-43.98s0,0,0,0c0,0,0,0,0,0Zm-10.42-18.26s0,.01,0,.02c0,0,0-.01,0-.02Zm-93.51-10.58s-.01,0-.02,0c0,0,.01,0,.02,0Zm18.64-10.14s0,0-.01.01c0,0,0,0,.01-.01Zm22.72,87.32c-9.46,0-18.66-4.87-23.59-13.5-3.49-6.1-4.35-13.18-2.44-19.91,1.95-6.85,6.52-12.52,12.88-15.98,12.97-7.04,29.39-2.47,36.62,10.19h0c3.49,6.11,4.35,13.18,2.44,19.92-1.95,6.85-6.53,12.53-12.88,15.98-4.13,2.24-8.61,3.3-13.03,3.3Zm-.08-46.7c-3.46,0-6.97.83-10.2,2.59-4.93,2.68-8.47,7.06-9.97,12.34-1.47,5.17-.81,10.6,1.87,15.29,5.62,9.85,18.43,13.39,28.55,7.9,4.93-2.68,8.47-7.06,9.98-12.35,1.47-5.17.81-10.61-1.88-15.3-3.83-6.7-10.98-10.48-18.35-10.48Z"/>
    </g>
    <path class="cls-3" d="m915.38,823.29h-414.38c-1.66,0-3-1.34-3-3s1.34-3,3-3h414.38c1.66,0,3,1.34,3,3s-1.34,3-3,3Z"/>
    <path class="cls-3" d="m605.41,667.37c-.3,0-.61-.05-.92-.14-1.58-.51-2.45-2.19-1.94-3.77l21.83-68.16c.51-1.58,2.2-2.44,3.77-1.94,1.58.51,2.45,2.19,1.94,3.77l-21.83,68.16c-.41,1.27-1.59,2.09-2.86,2.09Z"/>
    <path class="cls-3" d="m659.87,578.09c-.25,0-.51-.03-.76-.1-1.6-.42-2.56-2.06-2.14-3.66l15.44-58.79c.42-1.6,2.06-2.56,3.66-2.14,1.6.42,2.56,2.06,2.14,3.66l-15.44,58.79c-.35,1.35-1.57,2.24-2.9,2.24Z"/>
  </g>
  <g class="cls-6">
    <g>
      <path class="cls-3" d="m0,500c0-24.75,10.03-47.17,26.25-63.4,16.22-16.22,38.64-26.24,63.4-26.24h7.18v91.91c0,.25,0,.49.01.72.01.15.03.3.05.45.01.17.03.35.05.52.01.15.02.3.04.44.02.18.06.37.11.55.01.08.02.15.04.23,1.3,6.35,6.74,11.12,13.26,11.12h51.58v58.79h-51.58c-7.49,0-13.57,6.27-13.57,14.02v.54h-7.18c-49.53,0-89.66-40.15-89.66-89.66Z"/>
      <rect class="cls-3" x="230.13" y="516.3" width="266.23" height="58.79"/>
      <path class="cls-3" d="m339.97,254.44c-10.91-19.11-3.88-43.25,15.74-53.89,19.62-10.64,44.37-3.78,55.28,15.33,10.93,19.12,3.88,43.26-15.74,53.91-19.6,10.64-44.36,3.77-55.28-15.35Z"/>
      <path class="cls-3" d="m600.8,189.52c6.44,11.27,2.29,25.49-9.27,31.77-11.56,6.27-26.15,2.22-32.58-9.05-6.43-11.26-2.29-25.49,9.27-31.76,11.56-6.28,26.15-2.23,32.58,9.04Z"/>
      <path class="cls-3" d="m823.63,51.72H89.66c-24.75,0-47.18,10.04-63.39,26.25C10.03,94.19,0,116.61,0,141.38c0,49.51,40.15,89.65,89.66,89.65h134.06c26.22,0,49.82,11.26,66.22,29.21l1.3-.7c-2.97-9.65-4.11-19.56-3.55-29.32l-27.3-7.58c-1.45-.4-2.05-2.12-1.12-3.27,1.89-2.38,4.62-6.82,6.88-14.54,2.26-7.71,2.32-12.9,2-15.88-.16-1.46,1.27-2.61,2.73-2.2l27.24,7.56c4.76-8.64,11.09-16.53,18.84-23.25l-13.75-24.07c-.73-1.3.08-2.91,1.58-3.1,3.06-.38,8.22-1.63,15.41-5.54,7.18-3.9,11-7.51,12.93-9.85.95-1.14,2.8-.97,3.53.32l13.75,24.07c9.94-2.88,20.17-3.96,30.21-3.38l7.74-26.55c.42-1.41,2.17-2,3.37-1.1,2.43,1.85,6.98,4.51,14.91,6.7,7.91,2.19,13.22,2.28,16.29,1.95,1.49-.15,2.67,1.25,2.26,2.66l-7.77,26.62c8.81,4.67,16.85,10.84,23.71,18.38l24.87-13.49c1.31-.71,2.98.08,3.16,1.53.38,2.98,1.67,8.01,5.68,15.03,4.01,7.01,7.71,10.72,10.1,12.61,1.18.93.98,2.72-.32,3.43l-24.96,13.55c2.9,9.63,3.99,19.51,3.38,29.21l27.58,7.65c1.45.4,2.04,2.11,1.11,3.27-1.89,2.36-4.61,6.81-6.88,14.53-2.25,7.72-2.32,12.89-2,15.88.16,1.47-1.27,2.6-2.73,2.21l-27.63-7.67c-4.75,8.52-11.02,16.3-18.68,22.95l13.98,24.48c.73,1.28-.08,2.9-1.58,3.1-3.06.36-8.22,1.63-15.41,5.54-7.18,3.9-11,7.5-12.93,9.85-.95,1.13-2.79.96-3.53-.32l-13.98-24.48c-9.83,2.84-19.93,3.94-29.86,3.39l-7.86,26.94c-.42,1.41-2.17,2.01-3.37,1.1-2.43-1.85-6.98-4.51-14.91-6.7-7.91-2.2-13.22-2.28-16.28-1.95-1.5.15-2.68-1.24-2.27-2.65l7.85-26.88c-8.79-4.61-16.83-10.71-23.7-18.19l-1.05.57c2.9,8.81,4.47,18.23,4.47,28.01,0,23.06-8.71,44.09-23.01,59.98h205.99v-30.91c0-9.13,7.41-16.54,16.54-16.54h35.09c9.13,0,16.52,7.41,16.52,16.54v30.91h49.93c1.35,0,2.67.21,3.92.59,4.15,1.3,7.47,4.59,8.9,8.8.5,1.46.76,3.01.76,4.63v107.58c0,7.75-6.09,14.03-13.57,14.03h-49.93v58.79h44.18l22.71-65.13,19.79-56.79,13.83-39.66c2.59-7.43,8.58-12.98,15.87-15.15-26.83-15.49-44.88-44.48-44.88-77.69,0-24.75,10.04-47.17,26.27-63.39,16.23-16.23,38.63-26.27,63.39-26.27h97.97c24.77,0,47.19-10.03,63.4-26.27,16.23-16.22,26.25-38.64,26.25-63.38,0-49.52-40.13-89.66-89.66-89.66Zm-175.26,158.48c-1.12,1.39-2.72,4.02-4.06,8.56-1.33,4.54-1.37,7.6-1.18,9.36.1.86-.76,1.53-1.61,1.31l-16.29-4.52c-2.8,5.02-6.49,9.61-11,13.53l8.24,14.43c.43.77-.04,1.72-.93,1.82-1.8.22-4.84.96-9.08,3.27-4.23,2.29-6.49,4.42-7.62,5.8-.56.67-1.64.57-2.08-.19l-8.24-14.42c-5.8,1.67-11.75,2.32-17.6,2l-4.63,15.88c-.25.83-1.28,1.18-1.99.64-1.44-1.08-4.11-2.66-8.79-3.95-4.66-1.3-7.79-1.34-9.6-1.14-.89.09-1.58-.73-1.34-1.57l4.63-15.84c-5.18-2.72-9.92-6.32-13.97-10.72l-14.71,7.98c-.77.42-1.75-.04-1.86-.91-.23-1.75-.99-4.72-3.35-8.85-2.36-4.12-4.55-6.32-5.96-7.43-.69-.54-.58-1.61.19-2.03l14.65-7.96c-1.75-5.69-2.43-11.53-2.09-17.28l-16.1-4.46c-.85-.24-1.2-1.25-.66-1.93,1.11-1.39,2.72-4.02,4.06-8.57,1.33-4.54,1.36-7.6,1.18-9.36-.1-.86.74-1.53,1.61-1.3l16.05,4.45c2.81-5.08,6.53-9.74,11.1-13.7l-8.11-14.2c-.43-.76.05-1.72.93-1.81,1.8-.23,4.85-.97,9.09-3.27,4.23-2.3,6.48-4.43,7.62-5.81.55-.67,1.64-.56,2.07.19l8.11,14.2c5.86-1.71,11.89-2.34,17.8-2l4.57-15.64c.25-.84,1.28-1.18,1.99-.65,1.43,1.08,4.11,2.66,8.79,3.95,4.66,1.3,7.79,1.34,9.6,1.16.89-.1,1.58.72,1.34,1.55l-4.59,15.7c5.19,2.75,9.93,6.39,13.98,10.84l14.65-7.96c.78-.42,1.76.04,1.87.91.23,1.75.98,4.72,3.35,8.85,2.36,4.13,4.55,6.32,5.96,7.43.69.55.58,1.61-.19,2.03l-14.71,7.98c1.72,5.68,2.35,11.5,2,17.22l16.25,4.51c.85.24,1.21,1.24.67,1.93Z"/>
      <path class="cls-3" d="m926.58,799.58h-27.31l-8.69-24.94c14,5.25,26.34,13.89,36,24.94Z"/>
      <path class="cls-3" d="m948.76,858.63c0,24.74-10.03,47.17-26.27,63.38-16.22,16.24-38.64,26.27-63.38,26.27H96.55c-49.52,0-89.67-40.14-89.67-89.65,0-24.77,10.04-47.19,26.27-63.4,16.23-16.24,38.65-26.27,63.4-26.27h44.61c7.18,0,14.15-.84,20.84-2.44v53.77h-65.15v48.09h834.65c7.1,0,12.87-5.75,12.87-12.86v-24.73c2.86,8.76,4.4,18.11,4.4,27.83Z"/>
      <path class="cls-3" d="m1000,500c0,24.77-10.04,47.17-26.27,63.39-16.23,16.23-38.63,26.27-63.39,26.27h-77.94c-2.09,0-4.18.08-6.23.22l-1.88-5.39-25.99-74.52-19.78-56.79-13.83-39.66c-.39-1.1-.84-2.16-1.38-3.16h147.03c49.51,0,89.66,40.13,89.66,89.65Z"/>
      <path class="cls-3" d="m274.05,322.34c0,24.65-13.02,46.26-32.56,58.33h-11.36v-30.91c0-9.13-7.39-16.54-16.53-16.54h-35.08c-9.13,0-16.54,7.41-16.54,16.54v25.45c-15.23-12.57-24.94-31.59-24.94-52.87,0-37.83,30.67-68.5,68.5-68.5s68.5,30.67,68.5,68.5Z"/>
      <path class="cls-3" d="m915.6,677.23c0,26.73-15.32,49.89-37.66,61.17l-21.16-60.71-23.56-67.55c4.48-.92,9.12-1.4,13.87-1.4,37.83,0,68.5,30.67,68.5,68.5Z"/>
      <path class="cls-3" d="m823.71,253.84h-85.42c-37.83,0-68.5,30.67-68.5,68.5s30.67,68.5,68.5,68.5h85.42c37.83,0,68.5-30.67,68.5-68.5s-30.67-68.5-68.5-68.5Z"/>
    </g>
    <path class="cls-3" d="m496.66,799.69c-6.38.77-11.31,6.18-11.31,12.76v7.85h-255.22v-109.57h.02s211.61-.01,211.61-.01h.04s54.56.01,54.56.01v88.99c.1-.01.19-.02.3-.03Z"/>
  </g>
</svg>